<svg width="695" height="375" viewBox="0 0 695 375" fill="none" xmlns="http://www.w3.org/2000/svg"><path d="M144.181 374.858c-1.804 0-3.51-.288-5.118-.865a11.027 11.027 0 0 1-4.145-2.791c-1.156-1.258-2.087-2.87-2.792-4.836-.677-1.965-1.015-4.311-1.015-7.037 0-2.044.338-3.866 1.015-5.465.705-1.625 1.636-2.988 2.792-4.088a11.829 11.829 0 0 1 4.145-2.556c1.608-.603 3.314-.904 5.118-.904 1.777 0 3.455.301 5.034.904 1.579.577 2.947 1.429 4.103 2.556 1.185 1.1 2.115 2.463 2.792 4.088.705 1.599 1.058 3.421 1.058 5.465 0 2.726-.353 5.072-1.058 7.037-.677 1.966-1.607 3.578-2.792 4.836a10.665 10.665 0 0 1-4.103 2.791c-1.579.577-3.257.865-5.034.865Zm0-13.681c1.269 0 2.341-.38 3.215-1.14.903-.787 1.354-1.756 1.354-2.91 0-1.179-.451-2.149-1.354-2.909-.874-.76-1.946-1.14-3.215-1.14-1.24 0-2.312.38-3.214 1.14-.903.76-1.354 1.73-1.354 2.909 0 1.154.451 2.123 1.354 2.91.902.76 1.974 1.14 3.214 1.14ZM160.562 370.573v-19.657c0-1.468.381-2.49 1.142-3.067.79-.576 2.298-.865 4.526-.865 1.495 0 2.609.184 3.342.551a2.69 2.69 0 0 1 1.48 1.651l1.862 5.583c.197.471.493.812.888 1.022.395.183.79.262 1.184.236a1.702 1.702 0 0 0 1.016-.511c.31-.315.465-.721.465-1.219v-3.381c0-.813.028-1.481.084-2.005.085-.525.282-.918.593-1.18.31-.288.789-.485 1.438-.589.648-.105 1.537-.158 2.665-.158 2.03 0 3.327.249 3.891.747.564.472.846 1.534.846 3.185v19.657c0 1.468-.324 2.49-.973 3.067-.648.576-1.861.865-3.637.865-1.833 0-3.201-.171-4.103-.512-.903-.366-1.481-.93-1.735-1.69l-1.903-5.661c-.198-.472-.494-.813-.889-1.023-.394-.209-.789-.288-1.184-.235-.395.052-.747.235-1.057.55-.282.288-.423.681-.423 1.179v3.46c0 1.651-.268 2.726-.804 3.224-.536.472-1.706.708-3.511.708-1.128 0-2.045-.053-2.75-.158-.676-.105-1.198-.288-1.565-.55-.366-.288-.606-.695-.719-1.219-.113-.524-.169-1.192-.169-2.005ZM207.924 368.647c0 1.284-.085 2.319-.254 3.106-.141.76-.494 1.349-1.058 1.769-.535.393-1.353.655-2.453.786-1.1.131-2.594.197-4.484.197-1.946 0-3.539-.092-4.78-.276-1.24-.183-2.213-.498-2.918-.943a3.398 3.398 0 0 1-1.396-1.848c-.254-.812-.381-1.822-.381-3.027v-17.888c0-1.337.338-2.254 1.015-2.752.677-.525 2.073-.787 4.188-.787 1.918 0 3.187.262 3.807.787.648.498.973 1.415.973 2.752v9.474c0 .97.268 1.639.803 2.006.564.366 1.777.55 3.638.55.621 0 1.142.079 1.565.236.452.157.79.458 1.016.904.253.446.437 1.075.549 1.887.113.786.17 1.809.17 3.067ZM211.742 370.377v-2.123c0-.97.028-1.73.084-2.281.057-.55.183-.956.381-1.218.225-.289.55-.459.973-.512.423-.078 1.001-.118 1.734-.118 1.1 0 1.777-.248 2.03-.746.282-.525.423-1.652.423-3.382 0-1.336-.126-2.227-.38-2.673-.254-.472-.903-.708-1.946-.708-1.297 0-2.171-.301-2.623-.904-.451-.603-.676-1.677-.676-3.224v-2.162c0-.76.042-1.363.126-1.808.085-.472.297-.813.635-1.023.338-.236.86-.38 1.565-.432.733-.053 1.72-.079 2.961-.079h9.56c1.241 0 2.213.026 2.918.079.734.052 1.269.196 1.608.432.338.21.55.551.634 1.023.085.445.127 1.048.127 1.808v2.162c0 1.73-.169 2.857-.507 3.381-.311.498-1.171.747-2.581.747-1.043 0-1.692.236-1.945.708-.254.446-.381 1.337-.381 2.673 0 1.73.127 2.857.381 3.382.253.498.902.746 1.945.746.705 0 1.255.04 1.65.118.423.053.733.223.931.512.225.262.366.668.423 1.218.056.551.084 1.311.084 2.281v2.123c0 .969-.042 1.729-.127 2.28-.084.55-.296.97-.634 1.258-.339.262-.874.432-1.608.511-.705.052-1.677.079-2.918.079h-9.56c-1.241 0-2.228-.027-2.961-.079-.705-.079-1.227-.249-1.565-.511-.338-.288-.55-.708-.635-1.258-.084-.551-.126-1.311-.126-2.28ZM236.092 370.573v-19.657c0-1.468.381-2.49 1.142-3.067.79-.576 2.298-.865 4.526-.865 1.495 0 2.609.184 3.342.551a2.69 2.69 0 0 1 1.48 1.651l1.862 5.583c.197.471.493.812.888 1.022.395.183.789.262 1.184.236a1.7 1.7 0 0 0 1.015-.511c.311-.315.466-.721.466-1.219v-3.381c0-.813.028-1.481.084-2.005.085-.525.282-.918.593-1.18.31-.288.789-.485 1.438-.589.648-.105 1.537-.158 2.665-.158 2.03 0 3.327.249 3.891.747.564.472.846 1.534.846 3.185v19.657c0 1.468-.324 2.49-.973 3.067-.648.576-1.861.865-3.637.865-1.833 0-3.201-.171-4.104-.512-.902-.366-1.48-.93-1.734-1.69l-1.903-5.661c-.198-.472-.494-.813-.889-1.023-.394-.209-.789-.288-1.184-.235-.395.052-.747.235-1.058.55-.282.288-.423.681-.423 1.179v3.46c0 1.651-.267 2.726-.803 3.224-.536.472-1.706.708-3.511.708-1.128 0-2.045-.053-2.75-.158-.676-.105-1.198-.288-1.565-.55-.366-.288-.606-.695-.719-1.219-.113-.524-.169-1.192-.169-2.005ZM265.73 367.231v-12.974c0-1.546.127-2.817.381-3.813.282-1.022.832-1.809 1.649-2.359.818-.577 1.988-.97 3.511-1.179 1.551-.21 3.582-.315 6.091-.315 2.623 0 4.668.039 6.134.118 1.466.052 2.538.236 3.215.55.705.289 1.128.734 1.269 1.337.141.603.211 1.442.211 2.516 0 .813-.056 1.468-.169 1.966-.085.472-.282.826-.592 1.062-.282.209-.691.353-1.227.432-.508.052-1.17.079-1.988.079h-5.795c-1.269.026-2.045.104-2.327.236-.282.104-.423.34-.423.707 0 .524.141.865.423 1.022.311.131 1.086.197 2.327.197h5.626c1.438 0 2.383.144 2.834.432.479.263.719.97.719 2.123 0 .682-.042 1.219-.127 1.612-.056.393-.211.695-.465.905-.254.183-.649.301-1.185.353-.535.053-1.269.079-2.199.079h-5.203c-1.241.026-2.016.118-2.327.275-.282.131-.423.472-.423 1.022 0 .341.141.577.423.708.311.105 1.086.157 2.327.157h4.949c1.043 0 1.875.04 2.496.118.648.053 1.142.236 1.48.551.339.288.564.734.677 1.336.113.603.169 1.442.169 2.517 0 1.415-.07 2.516-.211 3.302-.113.786-.508 1.376-1.185 1.769s-1.72.629-3.13.708c-1.382.078-3.342.118-5.88.118-2.622 0-4.737-.105-6.345-.315-1.579-.209-2.791-.589-3.637-1.14a4.13 4.13 0 0 1-1.692-2.359c-.254-1.022-.381-2.306-.381-3.853ZM325.86 371.163c0 1.337-.296 2.228-.888 2.673-.564.446-1.89.669-3.976.669-1.974 0-3.257-.171-3.85-.512-.564-.34-.832-1.284-.803-2.83v-4.128c0-.891-.212-1.599-.635-2.123-.423-.551-1.057-.826-1.903-.826-.846 0-1.481.275-1.904.826-.423.524-.634 1.232-.634 2.123v4.128c0 1.337-.296 2.228-.889 2.673-.564.446-1.889.669-3.976.669-1.974 0-3.257-.171-3.849-.512-.564-.34-.832-1.284-.804-2.83v-20.837c-.028-1.546.24-2.49.804-2.831.592-.34 1.875-.511 3.849-.511 2.087 0 3.412.223 3.976.669.593.445.889 1.336.889 2.673v1.415c0 .891.211 1.612.634 2.163.423.524 1.058.786 1.904.786.846 0 1.48-.262 1.903-.786.423-.551.635-1.272.635-2.163v-1.415c-.029-1.546.239-2.49.803-2.831.593-.34 1.876-.511 3.85-.511 2.086 0 3.412.223 3.976.669.592.445.888 1.336.888 2.673v20.837ZM336.029 352.252c.705-2.044 1.551-3.433 2.538-4.167 1.015-.734 2.538-1.101 4.568-1.101 1.015 0 1.861.079 2.538.236.705.157 1.311.433 1.819.826.507.367.945.904 1.311 1.612.367.681.733 1.546 1.1 2.594l6.556 18.636c.311.891.494 1.585.55 2.083.085.472-.042.826-.38 1.062-.311.236-.875.38-1.692.432-.79.026-1.89.04-3.3.04-.874 0-1.579-.014-2.115-.04-.507-.026-.916-.105-1.226-.236a1.912 1.912 0 0 1-.762-.707 12.025 12.025 0 0 1-.677-1.298c-.507-1.205-1.099-2.11-1.776-2.712-.677-.603-1.368-.905-2.073-.905-.677 0-1.368.302-2.073.905-.676.602-1.283 1.507-1.818 2.712-.254.551-.494.983-.72 1.298a2.008 2.008 0 0 1-.761.668c-.31.157-.705.249-1.184.275-.48.026-1.114.04-1.904.04-1.579 0-2.792-.014-3.638-.04-.846-.052-1.424-.196-1.734-.432-.31-.236-.423-.59-.338-1.062.112-.498.324-1.192.634-2.083l6.557-18.636Zm7.106 9.947c.959 0 1.777-.275 2.453-.826.705-.576 1.058-1.271 1.058-2.083 0-.918-.353-1.665-1.058-2.241-.676-.603-1.494-.904-2.453-.904-.931 0-1.734.301-2.411.904-.677.576-1.015 1.323-1.015 2.241 0 .812.338 1.507 1.015 2.083.677.551 1.48.826 2.411.826ZM374.078 346.591c1.974 0 3.553.079 4.738.236 1.184.157 2.073.432 2.665.826.592.367.973.878 1.142 1.533.197.629.296 1.415.296 2.359 0 1.677-.324 2.791-.973 3.342-.649.524-1.96.786-3.934.786-1.974 0-3.468.367-4.484 1.101-1.015.707-1.522 1.795-1.522 3.263 0 1.677.465 2.83 1.395 3.459.931.629 2.538.944 4.823.944 2.03 0 3.454.328 4.272.983.818.655 1.227 1.835 1.227 3.538 0 1.153-.127 2.123-.381 2.91a3.2 3.2 0 0 1-1.354 1.808c-.676.446-1.649.76-2.918.944-1.269.183-2.933.275-4.992.275-5.273 0-9.024-1.219-11.251-3.657-2.2-2.463-3.286-5.936-3.258-10.418 0-4.456 1.1-7.942 3.3-10.458 2.199-2.516 5.936-3.774 11.209-3.774ZM387.524 371.163v-20.837c0-.76.028-1.363.084-1.808.085-.472.282-.813.592-1.023.339-.236.832-.38 1.481-.432.649-.053 1.537-.079 2.665-.079 1.212 0 2.157.026 2.834.079.705.052 1.213.196 1.523.432.338.21.55.551.634 1.023.085.445.127 1.048.127 1.808v2.32c0 .183.099.327.296.432.198.079.423.131.677.157.254.027.494 0 .719-.078.254-.079.423-.197.508-.354l1.353-3.263c.226-.551.452-.996.677-1.337.254-.341.606-.59 1.058-.747.451-.183 1.071-.301 1.861-.354.789-.078 1.833-.118 3.13-.118 1.777 0 2.89.171 3.342.511.479.315.465.996-.043 2.045l-3.764 7.981c-.339.707-.508 1.323-.508 1.847 0 .498.141 1.101.423 1.809l4.315 10.772c.225.551.324.996.296 1.337 0 .314-.198.563-.592.747-.395.183-1.044.314-1.946.393-.874.052-2.073.079-3.596.079-1.776 0-2.975-.145-3.595-.433-.621-.288-1.1-.996-1.438-2.123l-1.227-4.128c-.056-.157-.198-.275-.423-.354a1.715 1.715 0 0 0-.635-.118 1.33 1.33 0 0 0-.634.158.403.403 0 0 0-.254.393v3.263c0 .76-.042 1.376-.127 1.848-.084.445-.296.786-.634 1.022-.31.209-.818.341-1.523.393-.677.052-1.622.079-2.834.079-1.128 0-2.016-.027-2.665-.079-.649-.052-1.142-.184-1.481-.393-.31-.236-.507-.577-.592-1.022a16.32 16.32 0 0 1-.084-1.848ZM421.555 352.252c.705-2.044 1.551-3.433 2.538-4.167 1.015-.734 2.538-1.101 4.569-1.101 1.015 0 1.861.079 2.538.236.705.157 1.311.433 1.818.826.508.367.945.904 1.312 1.612.366.681.733 1.546 1.1 2.594l6.556 18.636c.31.891.493 1.585.55 2.083.084.472-.042.826-.381 1.062-.31.236-.874.38-1.692.432-.789.026-1.889.04-3.299.04-.874 0-1.579-.014-2.115-.04-.508-.026-.917-.105-1.227-.236a1.91 1.91 0 0 1-.761-.707 11.846 11.846 0 0 1-.677-1.298c-.508-1.205-1.1-2.11-1.777-2.712-.676-.603-1.367-.905-2.072-.905-.677 0-1.368.302-2.073.905-.677.602-1.283 1.507-1.819 2.712-.254.551-.493.983-.719 1.298a2.008 2.008 0 0 1-.761.668c-.311.157-.705.249-1.185.275-.479.026-1.114.04-1.903.04-1.58 0-2.792-.014-3.638-.04-.846-.052-1.424-.196-1.734-.432-.311-.236-.423-.59-.339-1.062.113-.498.325-1.192.635-2.083l6.556-18.636Zm7.107 9.947c.958 0 1.776-.275 2.453-.826.705-.576 1.057-1.271 1.057-2.083 0-.918-.352-1.665-1.057-2.241-.677-.603-1.495-.904-2.453-.904-.931 0-1.735.301-2.412.904-.676.576-1.015 1.323-1.015 2.241 0 .812.339 1.507 1.015 2.083.677.551 1.481.826 2.412.826ZM447.748 369.983v-5.346c0-1.547-.127-2.49-.381-2.831-.254-.341-.902-.511-1.946-.511-.761 0-1.368-.079-1.819-.236-.423-.184-.747-.498-.973-.944-.225-.471-.366-1.127-.423-1.965a53.727 53.727 0 0 1-.084-3.342v-3.303c0-1.074.028-1.913.084-2.516.085-.603.282-1.048.593-1.336.338-.315.831-.498 1.48-.551.649-.078 1.551-.118 2.707-.118h11.929c1.156 0 2.058.04 2.707.118.649.053 1.128.236 1.438.551.339.288.536.733.592 1.336.085.603.127 1.442.127 2.516v3.303c0 1.363-.028 2.477-.084 3.342-.057.838-.198 1.494-.423 1.965-.198.446-.508.76-.931.944-.423.157-1.001.236-1.734.236-1.044 0-1.678.17-1.904.511-.225.341-.338 1.284-.338 2.831v5.346c0 1.075-.056 1.914-.169 2.517-.113.602-.367 1.061-.762 1.376-.366.288-.902.471-1.607.55-.677.052-1.593.079-2.75.079-1.269 0-2.27-.027-3.003-.079-.705-.079-1.227-.262-1.565-.55-.338-.315-.55-.774-.634-1.376-.085-.603-.127-1.442-.127-2.517ZM491.708 371.163c0 1.337-.296 2.228-.888 2.673-.564.446-1.889.669-3.976.669-1.974 0-3.257-.171-3.849-.512-.564-.34-.832-1.284-.804-2.83v-4.128c0-.891-.212-1.599-.635-2.123-.423-.551-1.057-.826-1.903-.826-.846 0-1.481.275-1.904.826-.423.524-.634 1.232-.634 2.123v4.128c0 1.337-.296 2.228-.888 2.673-.564.446-1.89.669-3.977.669-1.974 0-3.257-.171-3.849-.512-.564-.34-.832-1.284-.803-2.83v-20.837c-.029-1.546.239-2.49.803-2.831.592-.34 1.875-.511 3.849-.511 2.087 0 3.413.223 3.977.669.592.445.888 1.336.888 2.673v1.415c0 .891.211 1.612.634 2.163.423.524 1.058.786 1.904.786.846 0 1.48-.262 1.903-.786.423-.551.635-1.272.635-2.163v-1.415c-.028-1.546.24-2.49.804-2.831.592-.34 1.875-.511 3.849-.511 2.087 0 3.412.223 3.976.669.592.445.888 1.336.888 2.673v20.837ZM508.18 374.858c-1.805 0-3.511-.288-5.119-.865a11.027 11.027 0 0 1-4.145-2.791c-1.156-1.258-2.087-2.87-2.792-4.836-.677-1.965-1.015-4.311-1.015-7.037 0-2.044.338-3.866 1.015-5.465.705-1.625 1.636-2.988 2.792-4.088a11.829 11.829 0 0 1 4.145-2.556c1.608-.603 3.314-.904 5.119-.904 1.776 0 3.454.301 5.033.904 1.579.577 2.947 1.429 4.103 2.556 1.185 1.1 2.115 2.463 2.792 4.088.705 1.599 1.058 3.421 1.058 5.465 0 2.726-.353 5.072-1.058 7.037-.677 1.966-1.607 3.578-2.792 4.836a10.665 10.665 0 0 1-4.103 2.791c-1.579.577-3.257.865-5.033.865Zm0-13.681c1.269 0 2.34-.38 3.214-1.14.903-.787 1.354-1.756 1.354-2.91 0-1.179-.451-2.149-1.354-2.909-.874-.76-1.945-1.14-3.214-1.14-1.241 0-2.313.38-3.215 1.14-.903.76-1.354 1.73-1.354 2.909 0 1.154.451 2.123 1.354 2.91.902.76 1.974 1.14 3.215 1.14ZM524.56 370.573v-19.657c0-1.468.381-2.49 1.142-3.067.79-.576 2.299-.865 4.526-.865 1.495 0 2.609.184 3.342.551.733.34 1.227.891 1.481 1.651l1.861 5.583c.197.471.493.812.888 1.022.395.183.79.262 1.184.236a1.702 1.702 0 0 0 1.016-.511c.31-.315.465-.721.465-1.219v-3.381c0-.813.028-1.481.084-2.005.085-.525.282-.918.593-1.18.31-.288.789-.485 1.438-.589.648-.105 1.537-.158 2.665-.158 2.03 0 3.327.249 3.891.747.564.472.846 1.534.846 3.185v19.657c0 1.468-.324 2.49-.973 3.067-.648.576-1.861.865-3.637.865-1.833 0-3.201-.171-4.103-.512-.903-.366-1.481-.93-1.735-1.69l-1.903-5.661c-.198-.472-.494-.813-.889-1.023-.394-.209-.789-.288-1.184-.235-.395.052-.747.235-1.057.55-.282.288-.423.681-.423 1.179v3.46c0 1.651-.268 2.726-.804 3.224-.536.472-1.706.708-3.511.708-1.128 0-2.044-.053-2.749-.158-.677-.105-1.199-.288-1.566-.55-.366-.288-.606-.695-.719-1.219-.112-.524-.169-1.192-.169-2.005Z" fill="#F2EAD4"/><path fill-rule="evenodd" clip-rule="evenodd" d="M39.883 125.759c20.86-15.997 44.364-19.064 56.652-19.064 20.309 0 41.439 7.833 54.308 23.881 14.046 17.516 15.343 41.112 1.562 64.541-10.109 17.184-46.586 7.251-31.441-18.495 7.263-12.347 4.636-19.218 1.422-23.226-4.392-5.476-13.859-10.224-25.851-10.224-7.46 0-22.105 2.062-34.455 11.533-11.408 8.748-23.603 25.898-23.603 61.845 0 35.877 22.73 62.9 53.496 70.783 27.155 6.959 63.832-.504 98.427-37.1 6.92-7.319 18.313-8.83 26.253-2.633 7.941 6.197 9.408 17.733 2.599 25.156-42.577 46.417-93.141 60.981-136.334 49.913C36.144 310.683 2 269.218 2 216.55c0-45.412 16.08-74.071 37.883-90.791Z" fill="#9945FF" stroke="#020202" stroke-width="2.806"/><path d="m94.401 287.521-18-5.262-7.437 1.552 5.439 15.083c.178.493.817.626 1.19.256 7.242-7.199 18.808-11.629 18.808-11.629Z" fill="#020202"/><path fill-rule="evenodd" clip-rule="evenodd" d="M175.415 191.951c12.196-14.29 29.154-24.069 45.645-24.069 15.013 0 31.195 7.121 41.5 20.835a50.582 50.582 0 0 1 8.486 17.506c3.512-8.523 6.979-17.991 10.352-28.489 7.755-24.135 40.122-13.613 35.199 9.395-3.254 15.208-5.136 38.58-1.779 57.263 1.684 9.376 4.392 15.857 7.367 19.63 2.388 3.028 4.952 4.501 9.344 4.501 11.774 0 21.99-7.291 30.842-21.447 4.975-7.957 8.771-17.018 11.462-25.491 3.049-9.601 12.343-16.439 22.293-14.868 9.95 1.571 16.793 10.943 14.054 20.637-3.504 12.402-8.979 26.423-16.88 39.06C381.298 285.609 361.322 305 331.529 305c-16.392 0-29.212-7.264-37.987-18.391-5.293-6.713-8.933-14.558-11.442-22.588-3.334 5.066-6.728 9.693-10.17 13.902-16.17 19.775-34.195 31.194-52.681 33.957-38.202 5.708-65.579-26.088-65.579-57.417 0-26.302 9.012-47.595 21.745-62.512Zm77.723 50.034c-2.253 0-4.058-.679-5.786-1.711-7.43-4.441-9.645-15.154-11.332-23.644-.536-2.696-1.597-4.637-2.623-6.001-3.04-4.048-8.158-6.27-12.337-6.27-2.703 0-10.32 2.392-17.901 11.273-7.045 8.254-13.012 21.132-13.012 38.831 0 12.672 11.008 23.238 23.711 21.34 6.966-1.041 17.524-5.917 29.834-20.971 3.487-4.264 6.335-8.301 9.446-12.847Z" fill="#1FCFF1"/><path d="m175.415 191.951 1.067.911-1.067-.911Zm87.145-3.234-1.122.842 1.122-.842Zm8.486 17.506-1.357.359 1.067 4.026 1.587-3.85-1.297-.535Zm10.352-28.489-1.336-.43 1.336.43Zm35.199 9.395 1.372.293-1.372-.293Zm-1.779 57.263 1.38-.248-1.38.248Zm7.367 19.63 1.102-.869-1.102.869Zm40.186-16.946 1.189.743-1.189-.743Zm30.929 19.338 1.189.744-1.189-.744Zm-99.758 20.195 1.102-.869-1.102.869ZM282.1 264.021l1.34-.419-.883-2.826-1.628 2.473 1.171.772Zm-10.17 13.902-1.086-.888 1.086.888Zm-52.681 33.957.207 1.387-.207-1.387Zm14.148-101.251 1.122-.843-1.122.843Zm-30.238 5.003 1.068.911-1.068-.911Zm10.699 60.171.207 1.388-.207-1.388Zm29.834-20.971-1.086-.888 1.086.888Zm30.463-29.407a1.403 1.403 0 1 0-2.752-.55l2.752.55Zm-26.803 14.849-.72 1.204.72-1.204ZM236.02 216.63l-1.376.274 1.376-.274Zm137.813 4.955-1.337-.425 1.337.425ZM221.06 166.479c-17.023 0-34.34 10.065-46.713 24.561l2.135 1.822c12.021-14.084 28.62-23.577 44.578-23.577v-2.806Zm42.621 21.395c-10.584-14.087-27.192-21.395-42.621-21.395v2.806c14.597 0 30.353 6.933 40.378 20.274l2.243-1.685Zm8.721 17.99a51.97 51.97 0 0 0-8.721-17.99l-2.243 1.685a49.155 49.155 0 0 1 8.251 17.023l2.713-.718Zm7.66-28.56c-3.362 10.466-6.816 19.899-10.313 28.384l2.594 1.07c3.528-8.561 7.007-18.064 10.391-28.595l-2.672-.859Zm37.907 10.118c2.632-12.302-4.754-21.342-13.821-24.015-4.528-1.335-9.519-1.101-13.919 1.125-4.42 2.237-8.126 6.423-10.167 12.772l2.672.859c1.837-5.718 5.085-9.267 8.761-11.127 3.696-1.87 7.942-2.092 11.86-.937 7.825 2.306 14.161 10.031 11.87 20.736l2.744.587Zm-1.771 56.722c-3.315-18.454-1.457-41.634 1.771-56.722l-2.744-.587c-3.279 15.329-5.186 38.892-1.788 57.805l2.761-.496Zm7.089 19.009c-2.775-3.518-5.424-9.745-7.089-19.009l-2.761.496c1.704 9.488 4.471 16.224 7.647 20.251l2.203-1.738Zm8.242 3.967c-2.035 0-3.547-.34-4.794-.966-1.25-.627-2.338-1.593-3.448-3.001l-2.203 1.738c1.277 1.619 2.665 2.904 4.392 3.771 1.73.867 3.696 1.264 6.053 1.264v-2.806Zm29.652-20.788c-8.725 13.954-18.564 20.788-29.652 20.788v2.806c12.459 0 23.053-7.747 32.031-22.107l-2.379-1.487Zm11.315-25.172c-2.666 8.394-6.418 17.34-11.315 25.172l2.379 1.487c5.054-8.082 8.894-17.257 11.61-25.81l-2.674-.849Zm21.993 45.998c7.99-12.778 13.511-26.929 17.041-39.423l-2.7-.763c-3.478 12.311-8.906 26.201-16.72 38.698l2.379 1.488Zm-62.96 39.245c30.49 0 50.84-19.861 62.96-39.245l-2.379-1.488c-11.884 19.006-31.484 37.927-60.581 37.927v2.806Zm-39.088-18.926c9.019 11.438 22.234 18.926 39.088 18.926v-2.806c-15.929 0-28.355-7.041-36.885-17.857l-2.203 1.737Zm-11.68-23.038c2.545 8.145 6.253 16.156 11.68 23.038l2.203-1.737c-5.16-6.543-8.732-14.222-11.204-22.138l-2.679.837Zm-7.745 14.372c3.475-4.249 6.897-8.915 10.256-14.019l-2.343-1.543c-3.311 5.029-6.676 9.617-10.085 13.786l2.172 1.776Zm-53.56 34.456c18.93-2.828 37.242-14.5 53.56-34.456l-2.172-1.776c-16.022 19.594-33.76 30.761-51.803 33.457l.415 2.775Zm-67.189-58.804c0 32.029 27.991 64.661 67.189 58.804l-.415-2.775c-37.205 5.559-63.968-25.4-63.968-56.029h-2.806Zm22.08-63.423c-12.95 15.173-22.08 36.791-22.08 63.423h2.806c0-25.971 8.895-46.941 21.409-61.601l-2.135-1.822Zm72.285 50.438c1.882 1.124 3.935 1.91 6.506 1.91v-2.806c-1.934 0-3.493-.572-5.066-1.513l-1.44 2.409Zm-14.356-30.007c.915 1.219 1.878 2.968 2.368 5.433l2.752-.547c-.582-2.929-1.742-5.061-2.877-6.571l-2.243 1.685Zm-11.216-5.709c3.76 0 8.453 2.032 11.216 5.709l2.243-1.685c-3.319-4.417-8.861-6.83-13.459-6.83v2.806Zm-16.833 10.781c3.679-4.311 7.342-7.017 10.374-8.641 3.069-1.644 5.417-2.14 6.459-2.14v-2.806c-1.662 0-4.474.7-7.784 2.472-3.346 1.792-7.282 4.722-11.184 9.293l2.135 1.822Zm-12.677 37.92c0-17.368 5.85-29.923 12.677-37.92l-2.135-1.822c-7.263 8.51-13.348 21.712-13.348 39.742h2.806Zm22.101 19.953c-11.766 1.758-22.101-8.045-22.101-19.953h-2.806c0 13.436 11.681 24.766 25.321 22.728l-.414-2.775Zm28.955-20.472c-12.16 14.871-22.431 19.497-28.955 20.472l.414 2.775c7.408-1.107 18.254-6.234 30.713-21.471l-2.172-1.776Zm9.374-12.751c-3.105 4.537-5.926 8.535-9.374 12.751l2.172 1.776c3.526-4.311 6.401-8.388 9.517-12.942l-2.315-1.585Zm1.158 2.195c3.204 0 7.874-1.743 11.965-4.743 4.125-3.025 7.909-7.507 9.052-13.22l-2.752-.55c-.962 4.809-4.192 8.745-7.959 11.507-3.8 2.787-7.899 4.2-10.306 4.2v2.806Zm-5.066-4.319c-3.335-1.993-5.594-5.452-7.235-9.613-1.64-4.159-2.594-8.838-3.441-13.099l-2.752.547c.84 4.228 1.836 9.151 3.583 13.581 1.746 4.428 4.31 8.546 8.405 10.993l1.44-2.409Zm147.835-30.966c9.229 1.457 15.404 10.089 12.923 18.869l2.7.763c2.997-10.606-4.515-20.719-15.185-22.404l-.438 2.772Zm-20.737 13.906c2.877-9.057 11.588-15.351 20.737-13.906l.438-2.772c-10.75-1.697-20.628 5.686-23.849 15.829l2.674.849Z" fill="#020202"/><path d="m253.132 241.989-11.925 17.537c22.447 2.105 28.76-15.432 27.357-25.253-2.806 5.612-12.079 7.716-15.432 7.716Z" fill="#020202"/><path fill-rule="evenodd" clip-rule="evenodd" d="M371.481 194.925c-4.239 3.651-8.198 10.195-8.198 23.067 0 12.516 3.593 20.741 10.403 28.276 5.383 5.955 12.955 11.68 23.397 18.129 8.984 5.548 16.463 14.061 11.737 23.503-5.596 11.179-22.146 13.058-32.729 6.404-11.316-7.115-21.451-14.709-29.466-23.577-12.918-14.292-19.819-31.251-19.819-52.735 0-21.129 6.955-38.72 20.87-50.706 13.455-11.588 30.961-15.805 48.159-15.805 23.092 0 44.077 11.511 57.626 31.026 3.513-3.241 7.629-6.109 12.429-8.304 10.937-5.002 23.446-5.599 36.795-1.916 17.54 4.838 30.016 16.349 35.643 31.805 5.38 14.777 3.825 31.17-1.94 45.931-9.496 24.307-31.386 47.242-62.962 59.528-13.167 5.123-31.43-1.39-32.97-15.434-1.091-9.945 9.212-14.615 18.584-18.113 23.324-8.704 37.738-24.835 43.371-39.253 3.416-8.746 3.252-15.754 1.641-20.18-1.365-3.749-4.262-7.244-11.068-9.121-6.559-1.809-10.074-.92-11.924-.074-2.08.951-4.332 2.914-6.483 6.605-3.24 5.557-4.908 12.751-5.467 18.479-2.109 32.133-37.554 29.014-36.521-.771-1.632-30.628-21.331-43.731-36.754-43.731-11.765 0-19.654 2.92-24.354 6.967Z" fill="#FFD512"/><path d="m371.481 194.925-.916-1.063.916 1.063Zm2.205 51.343-1.04.941 1.04-.941Zm-27.061 24.459 1.041-.94-1.041.94Zm1.051-103.441.916 1.063-.916-1.063Zm118.214 6.917-.584-1.276.584 1.276Zm36.795-1.916.373-1.353-.373 1.353Zm35.643 31.805-1.319.48 1.319-.48Zm-1.94 45.931 1.306.51-1.306-.51Zm-33.977-13.272-1.307-.511 1.307.511Zm1.641-20.18-1.319.48 1.319-.48Zm-11.068-9.121.373-1.352-.373 1.352Zm-11.924-.074-.584-1.276.584 1.276Zm-6.483 6.605 1.212.706-1.212-.706Zm-5.467 18.479-1.397-.136-.002.022-.001.023 1.4.091Zm-36.521-.771 1.402.049.002-.062-.003-.062-1.401.075Zm28.189-24.152a1.403 1.403 0 1 0 2.787-.322l-2.787.322Zm-84.687 86.767.747-1.187-.747 1.187Zm-11.405-76.312c0-12.55 3.842-18.671 7.711-22.004l-1.832-2.126c-4.608 3.969-8.685 10.936-8.685 24.13h2.806Zm10.041 27.335c-6.575-7.275-10.041-15.164-10.041-27.335h-2.806c0 12.861 3.72 21.422 10.766 29.217l2.081-1.882Zm23.093 17.876c-10.399-6.422-17.841-12.065-23.093-17.876l-2.081 1.882c5.513 6.1 13.215 11.906 23.7 18.381l1.474-2.387Zm-52.236 8.465c8.137 9.003 18.392 16.676 29.761 23.824l1.493-2.375c-11.264-7.083-21.279-14.597-29.172-23.33l-2.082 1.881Zm-20.181-53.676c0 21.828 7.028 39.124 20.181 53.676l2.082-1.881c-12.683-14.032-19.457-30.656-19.457-51.795h-2.806Zm21.358-51.769c-14.289 12.307-21.358 30.324-21.358 51.769h2.806c0-20.813 6.84-37.979 20.383-49.643l-1.831-2.126Zm49.074-16.145c-17.406 0-35.282 4.266-49.074 16.145l1.831 2.126c13.117-11.297 30.253-15.465 47.243-15.465v-2.806Zm58.778 31.629c-13.793-19.868-35.197-31.629-58.778-31.629v2.806c22.603 0 43.17 11.261 56.473 30.423l2.305-1.6Zm10.693-8.78c-4.946 2.262-9.184 5.217-12.797 8.549l1.903 2.063c3.415-3.15 7.408-5.932 12.061-8.06l-1.167-2.552Zm37.752-1.993c-13.609-3.754-26.464-3.169-37.752 1.993l1.167 2.552c10.588-4.842 22.75-5.451 35.838-1.84l.747-2.705Zm36.588 32.678c-5.791-15.907-18.636-27.726-36.588-32.678l-.747 2.705c17.129 4.725 29.236 15.928 34.698 30.933l2.637-.96Zm-1.952 46.921c5.856-14.991 7.477-31.744 1.952-46.921l-2.637.96c5.235 14.378 3.748 30.41-1.928 44.94l2.613 1.021Zm-63.759 60.326c31.915-12.419 54.111-35.627 63.759-60.326l-2.613-1.021c-9.343 23.917-30.927 46.577-62.164 58.732l1.018 2.615Zm27.169-74.619c-5.477 14.021-19.578 29.875-42.554 38.45l.981 2.628c23.671-8.833 38.399-25.241 44.187-40.057l-2.614-1.021Zm1.629-19.189c1.467 4.029 1.696 10.678-1.629 19.189l2.614 1.021c3.507-8.979 3.407-16.348 1.652-21.17l-2.637.96Zm-10.122-8.248c3.235.892 5.454 2.144 7.007 3.547 1.548 1.398 2.497 3.004 3.115 4.701l2.637-.96c-.747-2.052-1.928-4.068-3.871-5.823-1.938-1.751-4.571-3.185-8.142-4.17l-.746 2.705Zm-10.968-.151c1.504-.687 4.673-1.586 10.968.151l.746-2.705c-6.823-1.883-10.683-1.003-12.881.002l1.167 2.552Zm-5.854 6.035c2.047-3.512 4.104-5.235 5.854-6.035l-1.167-2.552c-2.409 1.102-4.856 3.305-7.111 7.174l2.424 1.413Zm-5.283 17.91c.548-5.614 2.181-12.589 5.283-17.91l-2.424-1.413c-3.378 5.794-5.081 13.207-5.652 19.05l2.793.273Zm-74.671-43.236c14.601 0 33.756 12.441 35.353 42.403l2.802-.15c-1.668-31.294-21.91-45.058-38.155-45.058v2.805Zm-23.438 6.627c4.364-3.758 11.884-6.627 23.438-6.627v-2.805c-11.977 0-20.235 2.97-25.27 7.306l1.832 2.126Zm79.847-12.781c2.396 4.165 7.443 14.875 8.534 24.33l2.787-.322c-1.154-10.005-6.412-21.102-8.888-25.407l-2.433 1.399Zm-21.057 48.433c-.537 15.489 8.492 24.518 18.408 25.055 4.913.265 9.905-1.589 13.787-5.64 3.878-4.048 6.584-10.214 7.128-18.503l-2.8-.183c-.511 7.777-3.026 13.27-6.355 16.745-3.325 3.47-7.525 4.999-11.608 4.779-8.076-.437-16.252-7.859-15.756-22.155l-2.804-.098Zm10.663 62.324c-.476-4.348 1.483-7.569 4.843-10.22 3.419-2.696 8.146-4.675 12.838-6.426l-.981-2.628c-4.681 1.746-9.792 3.852-13.594 6.851-3.862 3.046-6.508 7.132-5.895 12.729l2.789-.306Zm31.067 14.28c-6.216 2.418-13.692 2.098-19.784-.512-6.082-2.605-10.583-7.387-11.283-13.768l-2.789.306c.84 7.663 6.241 13.16 12.967 16.042 6.716 2.877 14.955 3.251 21.907.547l-1.018-2.615Zm-65.352-20.972c-2.548 5.09-7.633 8.152-13.472 9.134-5.845.983-12.276-.159-17.255-3.289l-1.493 2.375c5.603 3.523 12.739 4.769 19.213 3.681 6.481-1.089 12.469-4.557 15.516-10.645l-2.509-1.256Zm-11.219-21.682c4.395 2.715 8.303 6.087 10.544 9.82 2.202 3.669 2.785 7.646.675 11.862l2.509 1.256c2.616-5.227 1.823-10.227-.778-14.562-2.563-4.271-6.887-7.929-11.476-10.763l-1.474 2.387Z" fill="#020202"/><path d="m98.09 92.574 51.207-75.059 70.85 25.254-42.515 33.338 59.512 42.82-112.493 50.803 34.111-66.044-60.673-11.112Z" fill="#F2EAD4" stroke="#000" stroke-width="2.806"/><path opacity=".4" d="m207.803 131.918-25.688 10.945 16.545-37.078c.714 9.76 6.763 23.406 9.143 26.133Z" fill="#000"/><path fill-rule="evenodd" clip-rule="evenodd" d="M589.257 295.912c3.216 13.698 7.988 28.321 14.532 43.546 10.44 24.284-25.314 37.613-33.512 14.406-9.497-22.094-16.027-43.954-19.581-64.619-9.137-2.461-26.449-6.497-37.023-12.58-18.187-10.461-6.963-40.915 13.376-33.936 4.669 1.602 16.657 6.18 20.499 7.479.278-13.956 2.221-26.891 5.833-38.402 5.886-18.763 16.721-35.123 33.528-44.418 17.08-9.447 37.287-9.922 58.259-2.751 23.05 7.882 39.188 23.358 45.324 42.935 6.1 19.46 1.407 40.224-11.69 56.49-17.739 22.031-48.817 34.64-89.545 31.85Zm-5.171-37.028c36.295 4.501 57.546-6.821 66.304-17.699 6.208-7.71 7.407-15.964 5.295-22.702-2.075-6.621-8.255-14.522-22.32-19.331-13.662-4.672-22.765-3.183-28.802.156-6.31 3.49-12.4 10.737-16.378 23.416-3.086 9.839-4.583 22.085-4.099 36.16Z" fill="#19FB9B" stroke="#020202" stroke-width="2.806"/><path d="M505.977 290.697c-3.373-3.508-8.094-12.83 0-22.058.972 4.046 8.364 8.432 11.939 10.118l-11.939 11.94Z" fill="#000"/><path d="M535.684 245.86c4.669 1.602 8.025 3.051 11.867 4.35 0 0 13.39 5.804 36.538 8.675 36.295 4.502 57.546-6.82 66.304-17.698" stroke="#020202" stroke-width="2.806"/><path d="m589.254 295.916-.152 1.395.028.003.028.002.096-1.4Zm-.096 1.4c41.054 2.812 72.634-9.89 90.734-32.37l-2.186-1.76c-17.377 21.583-47.954 34.098-88.356 31.331l-.192 2.799Zm.247-2.794c-10.601-1.154-20.2-2.813-27.149-4.185a288.595 288.595 0 0 1-8.223-1.74 183.369 183.369 0 0 1-2.806-.66l-.145-.036-.036-.009-.008-.002-.002-.001-.343 1.361-.343 1.36.001.001h.003a.126.126 0 0 0 .01.003l.04.01.152.037.592.144c.519.125 1.282.305 2.263.528 1.962.447 4.798 1.066 8.302 1.757 7.004 1.382 16.686 3.056 27.389 4.221l.303-2.789Z" fill="#020202"/><mask id="logo-mask" fill="#fff"><path d="m194.436 69.16 83.243-8.213 4.277 43.355c2.268 22.987-14.528 43.46-37.515 45.728-22.987 2.268-43.46-14.529-45.728-37.516l-4.277-43.355Z"/></mask><path d="m194.436 69.16 83.243-8.213 4.277 43.355c2.268 22.987-14.528 43.46-37.515 45.728-22.987 2.268-43.46-14.529-45.728-37.516l-4.277-43.355Z" fill="#F2EAD4"/><path d="M237 109.548a1.402 1.402 0 1 0 2.792-.28l-2.792.28Zm2.792-.28-4.209-42.088-2.792.279L237 109.548l2.792-.28Zm-45.356-40.109-.276-2.792-2.792.275.275 2.793 2.793-.276Zm83.243-8.212 2.792-.276-.275-2.792-2.793.275.276 2.793ZM194.711 71.95l83.243-8.212-.551-5.585-83.243 8.213.551 5.584Zm80.175-10.729 4.278 43.355 5.584-.551-4.277-43.355-5.585.551Zm-73.381 51.017-4.277-43.355-5.585.55 4.277 43.356 5.585-.551Zm42.66 34.998c-21.445 2.116-40.544-13.553-42.66-34.998l-5.585.551c2.42 24.529 24.267 42.452 48.796 40.032l-.551-5.585Zm34.999-42.66c2.115 21.445-13.554 40.545-34.999 42.66l.551 5.585c24.529-2.42 42.452-24.266 40.032-48.796l-5.584.551Z" fill="#020202" mask="url(#logo-mask)"/><path fill-rule="evenodd" clip-rule="evenodd" d="m461.744 56.466 22.647 43.13 71.088 27.304 10.733-27.304-36.595-19.7 42.947-29.682-53.651-39.981-57.169 46.233Zm38.679 7.425 19.118 9.733-2.347-19.602-16.771 9.87Z" fill="#F2EAD4"/><path d="m484.391 99.596-1.242.652.245.468.494.19.503-1.31Zm-22.647-43.13-.882-1.091-.895.724.535 1.02 1.242-.653Zm93.735 70.434-.503 1.31 1.3.499.509-1.296-1.306-.513Zm10.733-27.304 1.306.513.455-1.158-1.096-.59-.665 1.235Zm-36.595-19.7-.798-1.154-1.885 1.303 2.018 1.087.665-1.236Zm42.947-29.682.798 1.155 1.608-1.112-1.568-1.167-.838 1.124Zm-53.651-39.981.838-1.125-.873-.651-.847.685.882 1.09Zm.628 63.39-.636 1.251 2.341 1.192-.312-2.609-1.393.167Zm-19.118-9.732-.711-1.209-2.206 1.298 2.281 1.161.636-1.25Zm16.771-9.869 1.393-.167-.255-2.13-1.849 1.088.711 1.21Zm-31.561 44.922-22.647-43.13-2.484 1.304 22.647 43.13 2.484-1.304Zm70.349 26.647-71.088-27.304-1.006 2.619 71.088 27.304 1.006-2.619Zm8.924-26.508-10.733 27.304 2.612 1.026 10.733-27.304-2.612-1.026Zm-35.954-17.951 36.595 19.7 1.33-2.471-36.595-19.7-1.33 2.47Zm42.814-32.072-42.947 29.682 1.596 2.309 42.947-29.682-1.596-2.309Zm-53.691-37.702 53.651 39.981 1.676-2.25-53.651-39.981-1.676 2.25Zm-55.449 46.199 57.169-46.233-1.764-2.182-57.169 46.233 1.764 2.182Zm57.552 14.817L501.06 62.64l-1.273 2.5 19.118 9.733 1.273-2.5Zm-4.377-18.185 2.347 19.602 2.786-.334-2.347-19.602-2.786.334ZM501.135 65.1l16.771-9.869-1.423-2.418-16.771 9.87 1.423 2.417Z" fill="#000"/><path fill-rule="evenodd" clip-rule="evenodd" d="M533.727 174.735 565.931 63.81l42.149 12.61c39.008 11.67 36.415 67.757-3.504 75.777l20.233 47.261-63.495-17.235 6.331-20.533a1.403 1.403 0 1 0-2.682-.827l-6.358 20.625-24.878-6.753Zm61.304-38.029a8.458 8.458 0 0 0 8.458-8.458 8.458 8.458 0 1 0-16.915 0 8.457 8.457 0 0 0 8.457 8.458Z" fill="#F2EAD4"/><path d="m565.931 63.81.402-1.344-1.355-.405-.395 1.358 1.348.391Zm-32.204 110.925-1.348-.391-.398 1.371 1.378.374.368-1.354ZM608.08 76.42l.403-1.344-.403 1.344Zm-3.504 75.777-.276-1.376-1.693.34.679 1.588 1.29-.552Zm20.233 47.261-.367 1.354 2.798.76-1.141-2.666-1.29.552Zm-63.495-17.235-1.34-.413-.428 1.387 1.401.38.367-1.354Zm6.331-20.533 1.341.413-1.341-.413Zm-2.682-.827-1.34-.413 1.34.413Zm-6.358 20.625-.368 1.354 1.309.355.4-1.296-1.341-.413Zm5.978-118.07-32.204 110.926 2.695.782 32.204-110.925-2.695-.782Zm43.9 11.658-42.15-12.61-.804 2.688 42.149 12.61.805-2.688Zm-3.63 78.496c41.351-8.308 44.037-66.407 3.63-78.496l-.805 2.688c37.608 11.251 35.108 65.325-3.378 73.057l.553 2.751Zm21.246 45.334-20.233-47.261-2.58 1.104 20.233 47.261 2.58-1.104Zm-65.152-15.329 63.495 17.235.735-2.708-63.495-17.235-.735 2.708Zm5.357-22.3-6.33 20.533 2.681.827 6.331-20.534-2.682-.826Zm0 0 2.682.826a2.807 2.807 0 0 0-1.855-3.508l-.827 2.682Zm0 0 .827-2.682a2.806 2.806 0 0 0-3.508 1.855l2.681.827Zm-6.358 20.624 6.358-20.624-2.681-.827-6.359 20.625 2.682.826Zm-26.587-5.812 24.878 6.753.735-2.708-24.878-6.753-.735 2.708Zm68.727-47.841a7.055 7.055 0 0 1-7.055 7.055v2.806c5.446 0 9.861-4.415 9.861-9.861h-2.806Zm-7.055-7.055a7.055 7.055 0 0 1 7.055 7.055h2.806c0-5.446-4.415-9.861-9.861-9.861v2.806Zm-7.054 7.055a7.055 7.055 0 0 1 7.054-7.055v-2.806c-5.445 0-9.86 4.415-9.86 9.861h2.806Zm7.054 7.055a7.055 7.055 0 0 1-7.054-7.055h-2.806c0 5.446 4.415 9.861 9.86 9.861v-2.806Z" fill="#020202"/><path d="M53.404 212.833a9.752 9.752 0 0 1 6.65-5.281l55.933-12.596c1.148-.259 2.093.922 1.585 1.979l-12.833 26.667-63.387 14.275 12.052-25.044Z" fill="#19FB9B"/><path fill-rule="evenodd" clip-rule="evenodd" d="M52.124 212.219a11.145 11.145 0 0 1 7.6-6.035l55.933-12.596c2.295-.517 4.186 1.845 3.17 3.957l-13.125 27.274-64.045 14.423c-1.147.258-2.093-.923-1.585-1.979l12.052-25.044Zm8.235-3.302a8.356 8.356 0 0 0-5.7 4.527l-10.792 22.424 59.884-13.486 12.541-26.061-55.933 12.596Z" fill="#020202"/><path d="m66.962 258.22 63.387-14.276-12.052 25.044a9.75 9.75 0 0 1-6.651 5.281l-55.932 12.597c-1.148.258-2.094-.923-1.585-1.979l12.833-26.667Z" fill="#F087FF" stroke="#020202" stroke-width="2.806"/><path d="m66.962 258.22 63.387-14.276-25.618-20.343-63.387 14.275 25.618 20.344Z" fill="#1FCFF1"/><path fill-rule="evenodd" clip-rule="evenodd" d="m66.628 259.736 66.891-15.064-28.44-22.584-64.046 14.423c-1.147.258-1.477 1.727-.553 2.46l26.148 20.765Zm.682-3.03-22.796-18.103 59.883-13.486 22.796 18.103-59.883 13.486Z" fill="#020202"/><path d="m309.832 261.68-20.963-11.387-24.781 45.625 45.625 24.781 11.386-20.962-24.662-13.396 13.395-24.661Z" fill="#F2EAD4" stroke="#020202" stroke-width="2.806"/><path d="M662.372 126.329a.701.701 0 0 1 1.315.03l4.386 12.736a18.24 18.24 0 0 0 10.527 11.019l12.524 4.961c.605.24.586 1.104-.03 1.316l-12.737 4.385a18.238 18.238 0 0 0-11.018 10.527l-4.962 12.524c-.24.605-1.103.586-1.315-.03l-4.386-12.737a18.238 18.238 0 0 0-10.527-11.018l-12.523-4.962c-.606-.239-.586-1.103.03-1.315l12.736-4.386a18.24 18.24 0 0 0 11.019-10.527l4.961-12.523Z" fill="#FFD512"/><path d="m646.392 149.379.457 1.327-.457-1.327Zm11.019-10.527 1.304.517-1.304-.517Zm-23.785 16.228-.517 1.305.517-1.305Zm.03-1.315-.457-1.327.457 1.327Zm23.02 17.295-1.326.457 1.326-.457Zm-10.527-11.018.517-1.304-.517 1.304Zm16.228 23.785 1.305.517-1.305-.517Zm-1.315-.03 1.326-.457-1.326.457Zm17.295-23.021-.457-1.326.457 1.326Zm-11.018 10.527-1.305-.516 1.305.516Zm23.785-16.228.517-1.304-.517 1.304Zm-.03 1.316.457 1.326-.457-1.326Zm-23.021-17.296-1.326.457 1.326-.457Zm10.527 11.019-.516 1.304.516-1.304Zm-14.913-23.755 1.327-.457-1.327.457Zm-1.315-.03-1.304-.517 1.304.517Zm-.011.486 4.386 12.737 2.653-.913-4.386-12.737-2.653.913Zm15.723 24.603 12.523 4.962 1.034-2.609-12.524-4.962-1.033 2.609Zm12.553 3.646L677.9 159.45l.914 2.653 12.737-4.386-.914-2.653Zm-24.603 15.723-4.961 12.523 2.609 1.034 4.961-12.524-2.609-1.033Zm-3.646 12.553-4.385-12.736-2.653.913 4.385 12.737 2.653-.914Zm-15.722-24.602-12.524-4.962-1.033 2.609 12.523 4.961 1.034-2.608Zm-12.554-3.646 12.737-4.386-.914-2.653-12.736 4.385.913 2.654Zm24.603-15.723 4.961-12.524-2.608-1.033-4.962 12.523 2.609 1.034Zm-11.866 11.337a19.644 19.644 0 0 0 11.866-11.337l-2.609-1.034a16.836 16.836 0 0 1-10.171 9.718l.914 2.653Zm-12.707 3.07c.606.24.586 1.104-.03 1.316l-.913-2.654c-1.847.637-1.906 3.227-.09 3.947l1.033-2.609Zm23.861 16.828a19.642 19.642 0 0 0-11.337-11.866l-1.034 2.608a16.836 16.836 0 0 1 9.718 10.171l2.653-.913Zm3.07 12.706c.24-.605 1.103-.586 1.315.03l-2.653.914c.636 1.847 3.227 1.906 3.947.09l-2.609-1.034Zm16.827-23.86a19.641 19.641 0 0 0-11.866 11.337l2.609 1.033a16.834 16.834 0 0 1 10.171-9.717l-.914-2.653Zm12.707-3.07c-.605-.24-.586-1.104.03-1.316l.914 2.653c1.847-.636 1.906-3.227.09-3.946l-1.034 2.609Zm-23.86-16.828a19.639 19.639 0 0 0 11.337 11.866l1.033-2.609a16.832 16.832 0 0 1-9.717-10.17l-2.653.913Zm-1.733-13.65c-.636-1.847-3.227-1.906-3.946-.09l2.608 1.033c-.239.606-1.103.586-1.315-.03l2.653-.913Z" fill="#000"/><path d="M63.778 140.847c.168-.629 1.028-.71 1.31-.124l3.833 7.956a18.239 18.239 0 0 0 11.745 9.711l8.534 2.269c.63.167.711 1.027.125 1.31l-7.956 3.832a18.241 18.241 0 0 0-9.71 11.745l-2.27 8.535c-.167.629-1.027.711-1.31.124l-3.833-7.956a18.235 18.235 0 0 0-11.744-9.71l-8.535-2.27c-.63-.167-.71-1.027-.124-1.31l7.956-3.832a18.242 18.242 0 0 0 9.71-11.745l2.27-8.535Z" fill="#FFD512"/><path d="m51.799 161.127.609 1.264-.61-1.264Zm9.71-11.745 1.356.361-1.356-.361Zm-17.542 16.887.36-1.355-.36 1.355Zm-.124-1.31-.609-1.263.609 1.263Zm20.403 13.29 1.264-.609-1.264.609Zm-11.744-9.71-.36 1.355.36-1.355Zm16.887 17.542 1.356.36-1.356-.36Zm-1.31.124-1.264.609 1.264-.609Zm13.29-20.404.609 1.264-.61-1.264Zm-9.71 11.745-1.357-.36 1.356.36ZM89.2 160.659l-.36 1.356.36-1.356Zm.125 1.31-.61-1.264.61 1.264Zm-20.404-13.29-1.264.609 1.264-.609Zm11.745 9.711.36-1.356-.36 1.356Zm-15.578-17.667 1.264-.609-1.264.609Zm-1.31.124-1.355-.36 1.355.36Zm.046.485 3.833 7.956 2.528-1.218-3.833-7.956-2.528 1.218Zm16.481 18.413 8.535 2.27.72-2.712-8.534-2.269-.72 2.711Zm8.41.96-7.955 3.833 1.218 2.527 7.956-3.832-1.218-2.528Zm-18.413 16.481-2.269 8.534 2.712.721 2.27-8.534-2.713-.721Zm-.959 8.41-3.833-7.956-2.528 1.218 3.833 7.956 2.528-1.218Zm-16.48-18.413-8.535-2.269-.721 2.711 8.534 2.269.721-2.711Zm-8.411-.96 7.956-3.832-1.218-2.528-7.956 3.833 1.218 2.527Zm18.413-16.48 2.27-8.535-2.713-.721-2.269 8.535 2.712.721Zm-10.457 12.648a19.641 19.641 0 0 0 10.457-12.648l-2.712-.721a16.838 16.838 0 0 1-8.963 10.841l1.218 2.528Zm-8.08 2.523c.629.167.71 1.027.124 1.309l-1.218-2.527c-1.76.847-1.515 3.427.373 3.929l.72-2.711ZM65.51 177.64a19.642 19.642 0 0 0-12.648-10.457l-.72 2.711a16.837 16.837 0 0 1 10.84 8.964l2.528-1.218Zm2.523 8.08c.168-.629 1.028-.711 1.31-.124l-2.528 1.218c.848 1.76 3.428 1.515 3.93-.373l-2.712-.721Zm12.727-21.182a19.641 19.641 0 0 0-10.458 12.648l2.712.721a16.837 16.837 0 0 1 8.964-10.842l-1.218-2.527Zm8.08-2.523c-.63-.168-.711-1.028-.124-1.31l1.218 2.528c1.76-.848 1.515-3.428-.373-3.93l-.721 2.712Zm-21.183-12.727a19.64 19.64 0 0 0 12.648 10.457l.721-2.711a16.837 16.837 0 0 1-10.84-8.964l-2.529 1.218Zm-1.305-9.174c-.848-1.76-3.428-1.515-3.93.373l2.712.721c-.167.629-1.027.711-1.31.124l2.528-1.218Z" fill="#000"/><path d="m511.254 123.518-144.368 21.145s5.103-59.576 28.224-62.962c23.121-3.387 21.695 13.8 36.892 11.574 15.197-2.226 10.328-19.215 27.461-21.725 33.683-4.933 51.791 51.968 51.791 51.968Z" fill="#F2EAD4" stroke="#020202" stroke-width="2.806"/><path d="M550.703 289.318c2.37.573 18.849 4.453 38.549 6.597-1.302.052.641.905-.961 1.189-11.128 1.31-30.164 13.329-26.657 30.164-.036 1.397-1.026.054-.896 1.586-4.484-13.484-7.83-26.739-10.035-39.536ZM595.23 205.603c3.583-16.938-22.5-18.41-35.692-5.87l6.678-15.798 45.603 11.726c-6.775 1.824-13.874 7.499-16.589 9.942Z" fill="#020202"/><path opacity=".3" d="M139.492 321.956c25.815-12.346 22.681-34.607 16.134-43.492l2.105-2.105c4.489 11.785 17.303 23.149 23.149 27.358-15.714 11.785-34.139 17.07-41.388 18.239Z" fill="#020202"/><path d="M334.501 303.718c17.537-3.507 21.045-16.835 14.03-29.462 4.91 6.313 14.03 9.821 22.447 17.537-15.713 13.468-30.865 13.328-36.477 11.925Z" fill="#020202"/><path d="M135.98 180.257c5.612-9.82 5.612-17.537 5.612-17.537l18.94-9.119.702 9.119c-8.418 11.926-25.254 17.537-25.254 17.537ZM381.067 177.349c-17.962-13.258-32.432-9.093-32.432-9.093 4.231-7.958 11.126-8.809 16.037-11.148l9.119 2.105s5.78 4.237 7.276 18.136Z" fill="#000"/><path d="m601.374 279.59 13.527-12.239 30.797-17.473 14.175 10.674c-23.8 1.925-39.025 30.8-39.025 30.8s-16.576-11.762-19.474-11.762Z" fill="#020202"/><path fill-rule="evenodd" clip-rule="evenodd" d="m603.941 226.695 16.757-16.978 19.976 19.715.001-.001 16.979 16.757-36.472 36.954-16.979-16.757 19.714-19.975-19.976-19.715Z" fill="#FBDFCF"/><path d="m620.698 209.717-.998-.986.985-.998.999.985-.986.999Zm-16.757 16.978-.985.999-.999-.985.986-.999.998.985Zm36.733 2.737.999.985-.986.999-.998-.986.985-.998Zm.001-.001-.999-.986.986-.998.998.985-.985.999Zm16.979 16.757.985-.999.999.986-.986.998-.998-.985Zm-36.472 36.954.999.985-.986.999-.998-.986.985-.998Zm-16.979-16.757-.985.998-.999-.985.986-.999.998.986Zm19.714-19.975.985-.998.999.985-.986.999-.998-.986Zm-2.22-35.708-16.757 16.979-1.997-1.971 16.757-16.979 1.997 1.971Zm17.992 19.728-19.976-19.715 1.971-1.997 19.976 19.715-1.971 1.997Zm1.984-.014v.001l-1.998-1.971.001-.001 1.997 1.971Zm14.995 16.77-16.979-16.757 1.971-1.997 16.979 16.757-1.971 1.997Zm-36.484 34.97 36.471-36.954 1.997 1.971-36.471 36.954-1.997-1.971Zm-14.995-16.77 16.979 16.757-1.971 1.997-16.979-16.757 1.971-1.997Zm19.726-17.99-19.713 19.974-1.997-1.971 19.713-19.974 1.997 1.971Zm-19.988-21.699 19.975 19.715-1.971 1.997-19.975-19.715 1.971-1.997Z" fill="#000"/><path opacity=".4" d="M16.734 219.541c-2.775-44.055 15.957-63.482 15.957-63.482" stroke="#F2EAD4" stroke-width="11.224" stroke-linecap="round"/><path d="M679.399 235.829c4.476-30.942-13.405-43.809-13.405-43.809" stroke="#F2EAD4" stroke-width="11.224" stroke-linecap="round"/><path opacity=".7" d="M211.803 182.786c27.34-6.989 38.647 15.007 38.647 15.007M303.702 184.271c-7.625 25.018-5.084 49.5-5.084 49.5" stroke="#F2EAD4" stroke-width="11.224" stroke-linecap="round"/><path opacity=".9" d="M481.594 184.576c27.341-6.99 38.648 15.006 38.648 15.006M437.276 184.744c5.587 4.777 8.834 11.989 10.712 18.39M351.001 184.148c-10.995 11.614-9.76 33.531-9.76 33.531" stroke="#F2EAD4" stroke-width="11.224" stroke-linecap="round"/><path d="m301.594 274.763-6.089 11.49 14.195 7.029c-1.572-2.749 2.727-11.273 2.727-11.273s-9.557-5.969-10.833-7.246Z" fill="#020202"/><circle opacity=".4" cx="44.495" cy="143.451" r="6.745" fill="#F2EAD4"/><circle opacity=".7" cx="194.441" cy="194.386" r="6.745" fill="#F2EAD4"/><circle cx="452.505" cy="219.506" r="6.745" fill="#F3E8C0"/><circle cx="635.963" cy="176.232" r="6.745" fill="#F2EAD4"/><path d="m389.213 163.417-137.49-37.192 51.634-49.791 22.022 33.671 41.62-33.671 22.214 86.983Z" fill="#F2EAD4" stroke="#020202" stroke-width="2.806"/><path opacity=".4" d="m245.974 148.212 2.95-21.655 23.799 5.576c-4.894 11.155-19.872 15.367-26.749 16.079ZM548.798 123.215l8.554-28.177-5.367-3.188-31.536 19.202 28.349 12.163ZM383.184 142.655l26.961-4.493-32.859-33.666-3.107 2.379 9.005 35.78Z" fill="#000"/><path d="m410.739 139.139-5.383-29.936M465.656 130.741l-3.286-17.404" stroke="#020202" stroke-width="4.209" stroke-linecap="round"/><rect x="465.615" y="132.788" width="23.074" height="68.078" rx="1.403" transform="rotate(40.108 465.615 132.788)" fill="#F087FF" stroke="#000" stroke-width="2.806"/><path fill="#F2EAD4" stroke="#000" stroke-width="2.806" d="m506.514 138.624 13.888 11.478-11.478 13.888-13.888-11.478zM97.356 166.371l13.887 11.478-11.478 13.888-13.887-11.478z"/><path d="M85.933 308.523s30.078 12.079 59.341.525M99.447 132.984s16.927-1.859 27.041 10.733M180.807 238.961s-5.554 18.59 6.634 35.508M464.872 300.81s18.246-4.629 30.176-15.376M570.158 319.811s2.145 18.702 11.198 31.962M392.957 177.882s11.474-2.552 21.178 5.453M578.384 225.315s2.36-10.91 8.191-20.225" stroke="#020202" stroke-width="2.806" stroke-linecap="round"/><circle cx="194.756" cy="282.129" r="1.948" fill="#020202"/><circle cx="576.318" cy="233.769" r="2.063" fill="#020202"/><circle cx="370.979" cy="182.974" r="2.063" fill="#020202"/><circle cx="90.591" cy="133.967" r="1.948" fill="#020202"/><path fill-rule="evenodd" clip-rule="evenodd" d="m311.534 20.38-20.533 12.466-11.362-16.548-13.879 9.53 20.817 31.573 17.114-11.309 5.274 10.363 16.11-6.414-13.541-29.66Z" fill="#F2EAD4" stroke="#000" stroke-width="2.806"/></svg>
